<svg width="46" height="46" viewBox="0 0 46 46" fill="none" xmlns="http://www.w3.org/2000/svg">
<path d="M37.375 46H8.625C3.86118 46 0 42.1388 0 37.375V8.625C0 3.86118 3.86118 0 8.625 0H37.375C42.1388 0 46 3.86118 46 8.625V37.375C46 42.1388 42.1388 46 37.375 46Z" fill="#FFF9DD"/>
<path d="M34.5 14.1349C34.5 12.6817 33.3183 11.5 31.8651 11.5H14.1349C12.6817 11.5 11.5 12.6817 11.5 14.1349V31.8636C11.5 33.3183 12.6817 34.5 14.1349 34.5H31.8636C33.3183 34.5 34.5 33.3183 34.5 31.8651V14.1349ZM28.829 19.208C29.2027 19.5817 29.2027 20.1882 28.829 20.5633L22.6003 26.792C22.4136 26.9791 22.1675 27.0724 21.9233 27.0724C21.6776 27.0724 21.433 26.9791 21.2463 26.792L18.1312 23.677C17.7575 23.3032 17.7575 22.6968 18.1312 22.3216C18.505 21.9464 19.1115 21.9478 19.4866 22.3216L21.9233 24.7579L27.475 19.2066C27.8474 18.8342 28.4538 18.8342 28.829 19.208V19.208Z" fill="#FFD200"/>
</svg>
