<svg width="32" height="27" viewBox="0 0 32 27" fill="none" xmlns="http://www.w3.org/2000/svg">
<path d="M31.5657 23.4589L29.0519 20.0822V13.6481H29.8013C31.0065 13.6481 31.987 12.6676 31.987 11.4624V2.78192C31.987 1.57671 31.0065 0.596191 29.8013 0.596191H14.8759C13.7768 0.596191 12.8649 1.4119 12.7129 2.46967H6.38284C4.48894 2.46967 2.94813 4.01048 2.94813 5.90438V20.0822L0.434422 23.4589C-0.0621115 24.126 -0.138737 25.0019 0.23446 25.7451C0.607719 26.4882 1.35611 26.9498 2.18768 26.9498H29.8124C30.6439 26.9498 31.3924 26.4882 31.7656 25.7451C32.1388 25.002 32.0622 24.126 31.5657 23.4589V23.4589ZM14.8759 2.46973H29.8013C29.9735 2.46973 30.1135 2.60981 30.1135 2.78198V11.4624C30.1135 11.6346 29.9735 11.7747 29.8013 11.7747H23.5727C23.3489 11.7747 23.1326 11.8547 22.9627 12.0004L19.1225 15.2948V12.7113C19.1225 12.194 18.7031 11.7746 18.1857 11.7746H14.8759C14.7038 11.7746 14.5637 11.6345 14.5637 11.4624V2.78192C14.5637 2.60981 14.7038 2.46973 14.8759 2.46973V2.46973ZM4.8216 5.90444C4.8216 5.04358 5.52197 4.34321 6.38284 4.34321H12.6902V11.4624C12.6902 12.6676 13.6707 13.6482 14.8759 13.6482H17.249V15.9741C17.249 16.5913 17.5973 17.1349 18.1582 17.3927C18.3703 17.4902 18.5938 17.538 18.815 17.538C19.1783 17.538 19.5356 17.4088 19.8268 17.159L23.9195 13.6481H27.1785V19.4559H4.82167V5.90444H4.8216ZM30.0914 24.9043C30.0591 24.9685 29.98 25.0764 29.8124 25.0764H2.18762C2.02007 25.0764 1.94088 24.9685 1.9086 24.9043C1.87631 24.84 1.83709 24.712 1.9372 24.5776L4.35536 21.3294H27.6447L30.0629 24.5776C30.1629 24.7121 30.1237 24.84 30.0914 24.9043V24.9043Z" fill="#9D9D9D"/>
<path d="M16.4372 5.28C16.4372 5.79733 16.8566 6.21674 17.3739 6.21674H22.4947C23.0121 6.21674 23.4315 5.79733 23.4315 5.28C23.4315 4.76267 23.0121 4.34326 22.4947 4.34326H17.3739C16.8566 4.34326 16.4372 4.76267 16.4372 5.28Z" fill="#9D9D9D"/>
<path d="M27.3033 8.09009H17.3739C16.8566 8.09009 16.4372 8.5095 16.4372 9.02683C16.4372 9.54415 16.8566 9.96356 17.3739 9.96356H27.3033C27.8207 9.96356 28.2401 9.54415 28.2401 9.02683C28.2401 8.5095 27.8207 8.09009 27.3033 8.09009Z" fill="#9D9D9D"/>
</svg>
