<svg width="28" height="28" viewBox="0 0 28 28" fill="none" xmlns="http://www.w3.org/2000/svg">
<path d="M27.9671 2.09025C27.9065 0.978021 27.0219 0.0935632 25.9097 0.0328603C23.6654 -0.0897486 19.2738 0.0295245 15.0745 2.20154C12.9337 3.30885 10.6697 5.18621 8.86286 7.35226C8.8406 7.37895 8.81894 7.4058 8.79685 7.43254L4.6964 7.74929C4.02145 7.80146 3.42027 8.15524 3.04697 8.71983L0.249497 12.9511C-0.033619 13.3793 -0.0786267 13.9152 0.129021 14.3846C0.336723 14.854 0.763503 15.1811 1.27073 15.2597L4.72538 15.7948C4.71319 15.8619 4.70094 15.929 4.68972 15.9962C4.57472 16.6842 4.80265 17.3915 5.29954 17.8883L10.1116 22.7004C10.5235 23.1124 11.0802 23.3395 11.6506 23.3395C11.7681 23.3395 11.8862 23.3298 12.0038 23.3102C12.0709 23.299 12.138 23.2867 12.2052 23.2745L12.7402 26.7292C12.8188 27.2365 13.146 27.6633 13.6153 27.8709C13.8106 27.9573 14.0172 28 14.223 28C14.5119 27.9999 14.7988 27.9158 15.0488 27.7505L19.2801 24.953C19.8447 24.5796 20.1984 23.9785 20.2505 23.3036L20.5673 19.2032C20.594 19.1811 20.6209 19.1594 20.6476 19.1372C22.8137 17.3303 24.6911 15.0663 25.7984 12.9255C27.9705 8.72601 28.0896 4.33434 27.9671 2.09025V2.09025ZM18.3753 23.5844L14.3278 26.2604L13.8063 22.8936C15.5169 22.3906 17.2091 21.5851 18.8213 20.5059L18.6149 23.1771C18.6021 23.3438 18.5147 23.4922 18.3753 23.5844V23.5844ZM11.2717 21.5403L6.45957 16.7282C6.3368 16.6054 6.28003 16.4329 6.30787 16.2667C6.45093 15.4112 6.67323 14.5969 6.94842 13.8297L14.1687 21.05C13.2473 21.38 12.422 21.5769 11.7332 21.692C11.5668 21.7197 11.3944 21.6631 11.2717 21.5403V21.5403ZM4.82278 9.38505L7.49393 9.17871C6.41473 10.7908 5.60918 12.483 5.10622 14.1936L1.73945 13.6722L4.41552 9.62468C4.50772 9.48523 4.6562 9.3979 4.82278 9.38505V9.38505ZM19.5968 17.8772C18.2716 18.9826 16.9852 19.7821 15.7995 20.3607L7.63896 12.2002C8.39681 10.6523 9.32174 9.36339 10.1227 8.40319C11.7948 6.39863 13.8743 4.66936 15.8283 3.65874C19.6823 1.66522 23.7429 1.55787 25.8204 1.67096C26.0953 1.68595 26.314 1.90464 26.329 2.17966C26.4423 4.25713 26.3347 8.31766 24.3412 12.1717C23.3306 14.1256 21.6013 16.2052 19.5968 17.8772Z" fill="#9D9D9D"/>
<path d="M19.1803 12.9194C20.2304 12.9193 21.281 12.5195 22.0804 11.7201C22.8551 10.9454 23.2817 9.91545 23.2817 8.81996C23.2817 7.72446 22.8551 6.69448 22.0804 5.91983C20.4813 4.32061 17.8793 4.32072 16.2802 5.91983C15.5055 6.69448 15.0789 7.72446 15.0789 8.81996C15.0789 9.91545 15.5056 10.9454 16.2802 11.7201C17.0798 12.5197 18.1298 12.9195 19.1803 12.9194ZM17.4402 7.07986C17.9199 6.60009 18.5501 6.36023 19.1802 6.36023C19.8104 6.36023 20.4406 6.60009 20.9203 7.07986C21.3851 7.54465 21.641 8.16261 21.641 8.8199C21.641 9.47719 21.3851 10.0952 20.9203 10.56C19.9609 11.5195 18.3996 11.5194 17.4401 10.56C16.9753 10.0952 16.7193 9.47724 16.7193 8.81996C16.7193 8.16267 16.9754 7.54465 17.4402 7.07986Z" fill="#9D9D9D"/>
<path d="M0.837127 23.0745C1.04707 23.0745 1.25702 22.9944 1.41714 22.8342L4.09534 20.156C4.4157 19.8356 4.4157 19.3162 4.09534 18.9959C3.77504 18.6755 3.25562 18.6755 2.93526 18.9959L0.257114 21.6741C-0.0632438 21.9944 -0.0632438 22.5138 0.257114 22.8342C0.417239 22.9943 0.627183 23.0745 0.837127 23.0745V23.0745Z" fill="#9D9D9D"/>
<path d="M6.54963 21.4505C6.22932 21.1301 5.7099 21.1301 5.38954 21.4505L0.240513 26.5996C-0.0798455 26.9199 -0.0798455 27.4393 0.240513 27.7596C0.400692 27.9198 0.610582 27.9999 0.820527 27.9999C1.03047 27.9999 1.24042 27.9198 1.40054 27.7596L6.54957 22.6106C6.86999 22.2902 6.86999 21.7708 6.54963 21.4505V21.4505Z" fill="#9D9D9D"/>
<path d="M7.844 23.9048L5.16581 26.583C4.84545 26.9034 4.84545 27.4227 5.16581 27.7431C5.32598 27.9033 5.53593 27.9834 5.74582 27.9834C5.95571 27.9834 6.16571 27.9033 6.32583 27.7431L9.00403 25.0649C9.32439 24.7445 9.32439 24.2252 9.00403 23.9048C8.68373 23.5845 8.16431 23.5845 7.844 23.9048Z" fill="#9D9D9D"/>
</svg>
