<svg width="29" height="30" viewBox="0 0 29 30" fill="none" xmlns="http://www.w3.org/2000/svg">
<path d="M24.752 12.8275H20.5375C20.0683 12.8275 19.6879 13.208 19.6879 13.6771C19.6879 13.7879 19.7098 13.8935 19.7483 13.9906C19.8731 14.3046 20.1791 14.5267 20.5375 14.5267H24.752C26.1573 14.5267 27.3008 15.6701 27.3008 17.0755V25.5251C27.3008 26.9305 26.1573 28.074 24.752 28.074H15.1472C13.7418 28.074 12.5983 26.9305 12.5983 25.5251V16.2062C12.5983 15.6854 13.022 15.2617 13.5429 15.2617H15.4571C16.915 15.2617 18.1009 14.0758 18.1009 12.6179V5.02124C18.1009 2.67884 16.1952 0.773193 13.8528 0.773193H4.24805C1.90565 0.773193 0 2.67884 0 5.02124V14.0596C0 16.402 1.90565 18.3077 4.24805 18.3077H10.8991V25.5251C10.8991 27.8675 12.8048 29.7732 15.1472 29.7732H24.752C27.0944 29.7732 29 27.8675 29 25.5251V17.0755C29 14.7333 27.0944 12.8275 24.752 12.8275V12.8275ZM10.8991 16.6085H4.24805C2.84265 16.6085 1.69922 15.465 1.69922 14.0596V5.02124C1.69922 3.61584 2.84265 2.47241 4.24805 2.47241H13.8528C15.2582 2.47241 16.4017 3.61584 16.4017 5.02124V12.6179C16.4017 13.1388 15.978 13.5625 15.4571 13.5625H13.5429C12.085 13.5625 10.8991 14.7484 10.8991 16.2062V16.6085Z" fill="#9D9D9D"/>
<path d="M12.4169 11.458L9.83245 5.37005C9.69926 5.05631 9.39128 4.85254 9.05033 4.85254C8.7096 4.85254 8.40161 5.05631 8.26842 5.37005L5.68397 11.458C5.50055 11.8899 5.70211 12.3886 6.134 12.572C6.24219 12.6181 6.35481 12.6397 6.46543 12.6397C6.79621 12.6397 7.11061 12.4455 7.248 12.122L7.74958 10.9403H10.3513L10.8529 12.122C11.0363 12.5539 11.535 12.7555 11.9669 12.572C12.3988 12.3886 12.6003 11.8899 12.4169 11.458ZM8.47109 9.24108L9.05033 7.87617L9.62979 9.24108H8.47109Z" fill="#9D9D9D"/>
<path d="M17.336 23.5412L20.5 19.0892H18.162C17.9007 19.0892 17.6813 19.0099 17.504 18.8512C17.336 18.6925 17.252 18.4779 17.252 18.2072C17.252 17.9365 17.336 17.7219 17.504 17.5632C17.6813 17.4045 17.9007 17.3252 18.162 17.3252H22.74C22.824 17.3252 22.908 17.3392 22.992 17.3672C23.0853 17.3859 23.174 17.4465 23.258 17.5492C23.3513 17.6519 23.398 17.7872 23.398 17.9552C23.398 18.1699 23.328 18.3705 23.188 18.5572L20.01 23.0092H22.67C22.9313 23.0092 23.146 23.0885 23.314 23.2472C23.4913 23.4059 23.58 23.6205 23.58 23.8912C23.58 24.1619 23.4913 24.3765 23.314 24.5352C23.146 24.6939 22.9313 24.7732 22.67 24.7732H17.98C17.7467 24.7732 17.5507 24.7172 17.392 24.6052C17.2333 24.4839 17.154 24.3112 17.154 24.0872C17.154 23.9192 17.2147 23.7372 17.336 23.5412Z" fill="#9D9D9D"/>
</svg>
