<svg width="120" height="37" viewBox="0 0 120 37" fill="none" xmlns="http://www.w3.org/2000/svg">
<path d="M55.736 13.7732V24.7732H52.898V16.5012H49.862V20.1752C49.862 23.5779 48.3147 25.1105 45.22 24.7732V22.1112C45.8067 22.2579 46.254 22.1625 46.562 21.8252C46.87 21.4732 47.024 20.8719 47.024 20.0212V13.7732H55.736ZM66.2498 13.7732H68.3618V24.7732H65.5898V18.5252L60.4198 24.7732H58.3078V13.7732H61.0798V20.0212L66.2498 13.7732ZM78.1781 13.7732H81.0161V24.7732H78.1781V20.5932H73.8001V24.7732H70.9621V13.7732H73.8001V17.9312H78.1781V13.7732ZM93.7584 24.7732H90.4584L86.4544 19.7792V24.7732H83.6164V13.7732H86.4544V18.6132L90.2384 13.7732H93.6264L89.2044 19.2072L93.7584 24.7732ZM102.74 13.7732H105.578V24.7732H102.74V23.4752C101.889 24.5459 100.694 25.0812 99.154 25.0812C97.6874 25.0812 96.426 24.5239 95.37 23.4092C94.3287 22.2799 93.808 20.9012 93.808 19.2732C93.808 17.6452 94.3287 16.2739 95.37 15.1592C96.426 14.0299 97.6874 13.4652 99.154 13.4652C100.694 13.4652 101.889 14.0005 102.74 15.0712V13.7732ZM97.504 21.5172C98.076 22.0892 98.802 22.3752 99.682 22.3752C100.562 22.3752 101.288 22.0892 101.86 21.5172C102.447 20.9305 102.74 20.1825 102.74 19.2732C102.74 18.3639 102.447 17.6232 101.86 17.0512C101.288 16.4645 100.562 16.1712 99.682 16.1712C98.802 16.1712 98.076 16.4645 97.504 17.0512C96.932 17.6232 96.646 18.3639 96.646 19.2732C96.646 20.1825 96.932 20.9305 97.504 21.5172ZM113.366 25.0812C111.635 25.0812 110.234 24.5239 109.164 23.4092C108.108 22.2945 107.58 20.8792 107.58 19.1632C107.58 17.2859 107.858 15.8412 108.416 14.8292C108.973 13.8025 110.095 12.8712 111.782 12.0352C112.031 11.9179 112.383 11.7565 112.838 11.5512C113.292 11.3312 113.6 11.1772 113.762 11.0892C113.938 11.0012 114.172 10.8692 114.466 10.6932C114.759 10.5172 114.964 10.3632 115.082 10.2312C115.214 10.0845 115.353 9.90119 115.5 9.68119C115.646 9.46119 115.764 9.21919 115.852 8.95519L118.184 10.2972C117.993 11.1919 117.56 11.8885 116.886 12.3872C116.226 12.8712 115.228 13.3699 113.894 13.8832C112.955 14.2499 112.273 14.6165 111.848 14.9832C111.422 15.3499 111.114 15.7899 110.924 16.3032C111.745 15.4672 112.845 15.0492 114.224 15.0492C115.441 15.0492 116.526 15.4965 117.48 16.3912C118.433 17.2712 118.91 18.4445 118.91 19.9112C118.91 21.4219 118.396 22.6612 117.37 23.6292C116.358 24.5972 115.023 25.0812 113.366 25.0812ZM111.342 21.7372C111.884 22.2359 112.552 22.4852 113.344 22.4852C114.136 22.4852 114.788 22.2432 115.302 21.7592C115.815 21.2752 116.072 20.6592 116.072 19.9112C116.072 19.1632 115.815 18.5472 115.302 18.0632C114.788 17.5645 114.128 17.3152 113.322 17.3152C112.603 17.3152 111.958 17.5425 111.386 17.9972C110.828 18.4519 110.55 19.0605 110.55 19.8232C110.55 20.6005 110.814 21.2385 111.342 21.7372Z" fill="black"/>
<g clip-path="url(#clip0)">
<path d="M23.3829 0.773193H18.4725V5.97065H23.3829C24.6676 5.97206 25.8992 6.48982 26.8077 7.41033C27.7161 8.33084 28.227 9.57891 28.2284 10.8807V16.455H33.3576V10.8807C33.3583 5.30721 28.8839 0.773193 23.3829 0.773193Z" fill="#FFC55E"/>
<path d="M9.97469 0.773193C4.47443 0.773193 0 5.30721 0 10.8807V16.455H5.12915V10.8807C5.13075 9.57898 5.64177 8.33102 6.55014 7.41056C7.45851 6.49009 8.69007 5.97226 9.97469 5.97065H14.8859V0.773193H9.97469Z" fill="#6C63D2"/>
<path d="M9.97469 29.6145C8.69007 29.6128 7.45851 29.095 6.55014 28.1746C5.64177 27.2541 5.13075 26.0061 5.12915 24.7044V19.1301H0V24.7044C0 30.2764 4.47443 34.8119 9.97469 34.8119H14.8859V29.6145H9.97469Z" fill="#94BE45"/>
<path d="M30.3306 31.9503C31.2891 31.01 32.0511 29.884 32.5713 28.6392C33.0914 27.3943 33.3591 26.0562 33.3583 24.7044V19.1301H28.2292V24.7044C28.2278 26.0063 27.7167 27.2545 26.8081 28.175C25.8996 29.0956 24.6677 29.6133 23.3829 29.6145H18.4725V34.8119H23.3965C24.4209 34.8057 25.4429 34.9144 26.4438 35.136L33.6774 36.7732L30.3306 31.9503Z" fill="#5096FF"/>
</g>
<defs>
<clipPath id="clip0">
<rect y="0.773193" width="33.6774" height="36" fill="white"/>
</clipPath>
</defs>
</svg>
