<svg width="36" height="37" viewBox="0 0 36 37" fill="none" xmlns="http://www.w3.org/2000/svg">
<path d="M35.9463 35.3876L34.1925 30.0677C35.2599 29.5587 35.9993 28.4693 35.9993 27.2102C35.9993 25.8353 35.1176 24.663 33.89 24.2277V12.0389L35.4148 11.2796C35.7724 11.1016 35.9988 10.7368 35.9994 10.3373C36 9.93774 35.775 9.57218 35.4179 9.39296L18.4729 0.885306C18.1751 0.735822 17.8242 0.735822 17.5264 0.885306L0.581484 9.39296C0.224438 9.57218 -0.00063148 9.93781 1.33093e-06 10.3373C0.000634142 10.7367 0.22704 11.1016 0.584648 11.2796L6.32811 14.1395V20.8822C6.32811 21.1852 6.45847 21.4736 6.68586 21.6738C6.89377 21.8569 11.8476 26.1556 17.9997 26.1556C24.1519 26.1556 29.1057 21.8569 29.3136 21.6738C29.5411 21.4736 29.6714 21.1852 29.6714 20.8822V14.1395L31.7807 13.0891V24.2276C30.5531 24.663 29.6714 25.8353 29.6714 27.2102C29.6714 28.4693 30.4108 29.5587 31.4782 30.0677L29.7244 35.3876C29.4995 36.07 30.0092 36.7726 30.7261 36.7726H34.9447C35.6632 36.7725 36.1708 36.0685 35.9463 35.3876ZM27.562 20.3803C26.3876 21.294 22.4774 24.0463 17.9997 24.0463C13.5214 24.0463 9.61064 21.2932 8.43741 20.3805V15.1898L17.5296 19.7171C17.6776 19.7907 17.8387 19.8277 17.9997 19.8277C18.1608 19.8277 18.3218 19.7908 18.4699 19.7171L27.5621 15.1898V20.3803H27.562ZM17.9997 17.5947L3.41303 10.3316L17.9997 3.00804L32.5864 10.3316L17.9997 17.5947ZM32.1842 34.6632L32.8354 32.6881L33.4865 34.6632H32.1842ZM32.8354 28.2649C32.2538 28.2649 31.7807 27.7918 31.7807 27.2102C31.7807 26.6287 32.2538 26.1556 32.8354 26.1556C33.4169 26.1556 33.89 26.6287 33.89 27.2102C33.89 27.7918 33.4169 28.2649 32.8354 28.2649Z" fill="#9D9D9D"/>
<path d="M17.9997 7.17163C16.2551 7.17163 14.8358 8.59103 14.8358 10.3356C14.8358 12.0802 16.2551 13.4996 17.9997 13.4996C19.7444 13.4996 21.1637 12.0802 21.1637 10.3356C21.1637 8.59103 19.7443 7.17163 17.9997 7.17163ZM17.9997 11.3903C17.4182 11.3903 16.9451 10.9172 16.9451 10.3356C16.9451 9.75406 17.4182 9.28093 17.9997 9.28093C18.5813 9.28093 19.0544 9.75406 19.0544 10.3356C19.0544 10.9172 18.5812 11.3903 17.9997 11.3903Z" fill="#9D9D9D"/>
</svg>
