<svg width="30" height="31" viewBox="0 0 30 31" fill="none" xmlns="http://www.w3.org/2000/svg">
<path d="M28.8652 24.2351C28.1228 22.893 27.0436 21.7527 25.7443 20.9376L20.801 17.8366C20.991 17.5904 21.1657 17.3318 21.3236 17.0623H21.6797C23.4567 17.0623 24.9023 15.6166 24.9023 13.8396V9.79663C24.9023 8.18724 23.7165 6.84966 22.1726 6.61171C21.4841 3.283 18.5297 0.773193 15 0.773193C10.9614 0.773193 7.67578 4.05884 7.67578 8.09741V13.3708C7.67578 15.0505 8.24449 16.5996 9.19893 17.8366L4.25566 20.9376C2.95641 21.7527 1.87723 22.893 1.13479 24.2351C0.392344 25.5772 0 27.0973 0 28.6311V29.8943C0 30.3797 0.393516 30.7732 0.878906 30.7732H29.1211C29.6065 30.7732 30 30.3797 30 29.8943V28.6311C30 27.0973 29.6076 25.5772 28.8652 24.2351V24.2351ZM20.5664 8.27319H19.3527C18.3154 8.27319 17.3102 7.84235 16.5947 7.09124L15.6365 6.08501C15.471 5.91122 15.2416 5.81272 15.0016 5.81226C15.0011 5.81226 15.0006 5.81226 15.0001 5.81226C14.7607 5.81226 14.5316 5.90993 14.3658 6.08272L13.4058 7.08333C12.6913 7.82812 11.6896 8.25526 10.6575 8.25526H9.43359V8.09741C9.43359 5.0281 11.9307 2.53101 15 2.53101C18.0693 2.53101 20.5664 5.0281 20.5664 8.09741V8.27319ZM10.6574 10.0131C12.1659 10.0131 13.6299 9.38882 14.6742 8.30026L14.9977 7.96317L15.3218 8.3036C16.3675 9.40136 17.8366 10.031 19.3527 10.031H20.5664V13.3708C20.5664 14.0504 20.4438 14.7019 20.2198 15.3044H16.2305C15.7451 15.3044 15.3516 15.698 15.3516 16.1833C15.3516 16.6687 15.7451 17.0623 16.2305 17.0623H19.1624C18.142 18.2116 16.6543 18.9373 15 18.9373C11.9307 18.9373 9.43359 16.4402 9.43359 13.3708V10.0131H10.6574ZM15 20.6951C16.3847 20.6951 17.6808 20.3087 18.7864 19.6383C18.5821 21.5471 16.9622 23.0388 15 23.0388C13.0378 23.0388 11.4179 21.5471 11.2136 19.6383C12.3192 20.3087 13.6153 20.6951 15 20.6951ZM23.1445 9.79663V13.8396C23.1445 14.5086 22.6936 15.0738 22.0799 15.2484C22.239 14.649 22.3242 14.0197 22.3242 13.3708V8.48161C22.8096 8.7205 23.1445 9.22007 23.1445 9.79663V9.79663ZM28.2422 29.0154H1.75781V28.6311C1.75781 26.0942 3.04078 23.7748 5.18982 22.4267L9.45803 19.7491C9.72059 22.576 12.1056 24.7966 15 24.7966C17.8944 24.7966 20.2794 22.576 20.542 19.7491L24.8102 22.4267C26.9592 23.7749 28.2422 26.0942 28.2422 28.6311V29.0154Z" fill="#9D9D9D"/>
<path d="M24.375 25.4998H19.6875C19.2021 25.4998 18.8086 25.8933 18.8086 26.3787C18.8086 26.8641 19.2021 27.2576 19.6875 27.2576H24.375C24.8604 27.2576 25.2539 26.8641 25.2539 26.3787C25.2539 25.8933 24.8604 25.4998 24.375 25.4998Z" fill="#9D9D9D"/>
</svg>
